PathFileType	4	(X/Y/Z)	C:/Users/opensim2020/Desktop/walking_exp_matlab/subject03_walking13_straight_02.trc																																																																																																																																								
DataRate	CameraRate	NumFrames	NumMarkers	Units	OrigDataRate	OrigDataStartFrame	OrigNumFrames																																																																																																																																				
100	100	4	46	mm	100	1199	193																																																																																																																																				
Frame#	Time	LFHD			RFHD			LBHD			RBHD			C7			T10			CLAV			STRN			RBAK			LSHO			LUPA			LELB			LFRM			LWRA			LWRB			LFIN			RSHO			RUPA			RELB			RFRM			RWRA			RWRB			RFIN			LASI			RASI			LPSI			RPSI			LTHI			LKNE			LTIB			LANK			LHEE			LTOE			RTHI			RKNE			RTIB			RANK			RHEE			RTOE			*39			*40			*41			*42			*43			*44			*45		
		X1	Y1	Z1	X2	Y2	Z2	X3	Y3	Z3	X4	Y4	Z4	X5	Y5	Z5	X6	Y6	Z6	X7	Y7	Z7	X8	Y8	Z8	X9	Y9	Z9	X10	Y10	Z10	X11	Y11	Z11	X12	Y12	Z12	X13	Y13	Z13	X14	Y14	Z14	X15	Y15	Z15	X16	Y16	Z16	X17	Y17	Z17	X18	Y18	Z18	X19	Y19	Z19	X20	Y20	Z20	X21	Y21	Z21	X22	Y22	Z22	X23	Y23	Z23	X24	Y24	Z24	X25	Y25	Z25	X26	Y26	Z26	X27	Y27	Z27	X28	Y28	Z28	X29	Y29	Z29	X30	Y30	Z30	X31	Y31	Z31	X32	Y32	Z32	X33	Y33	Z33	X34	Y34	Z34	X35	Y35	Z35	X36	Y36	Z36	X37	Y37	Z37	X38	Y38	Z38	X39	Y39	Z39	X40	Y40	Z40	X41	Y41	Z41	X42	Y42	Z42	X43	Y43	Z43	X44	Y44	Z44	X45	Y45	Z45	X46	Y46	Z46
																																																																																																																																											
121	1.2	223.19345	1603.21375	-1461.83679	204.33923	1608.62805	-1330.02112	95.27479	1560.74829	-1474.26746	81.69604	1565.82678	-1343.60034	56.62439	1397.24963	-1408.72888	35.67969	1081.65027	-1398.97351	182.29982	1325.56067	-1406.44263	231.37123	1162.3866	-1409.26831	13.4924	1219.9364	-1305.12097	131.41519	1357.97229	-1564.10828	95.92593	1158.70898	-1626.44934	81.76	1035.36169	-1634.23291	72.61993	904.60144	-1633.97217	48.98153	785.03351	-1604.18542	36.37555	797.92377	-1658.27844	-3.07012	718.85724	-1644.63123	134.74733	1352.2666	-1246.87292	170.92288	1139.30322	-1162.70325	214.4026	1037.74084	-1147.13867	293.12686	928.08075	-1154.69275	365.80768	868.16278	-1198.54053	342.25629	841.11896	-1158.40857	403.32535	802.51947	-1170.14294	209.3268	928.52905	-1515.73975	200.20667	918.87274	-1278.31384	44.44406	940.867	-1474.64758	41.51281	950.0882	-1324.14148	235.72368	635.18884	-1564.46289	297.97833	476.49036	-1517.39563	299.40619	277.8392	-1520.68384	334.78128	70.39277	-1486.96301	296.91513	35.00996	-1450.23889	484.11554	45.09614	-1456.50098	97.77103	631.48993	-1237.86914	68.82932	452.57309	-1266.69775	-64.76946	306.59863	-1263.02344	-198.94727	135.92288	-1308.36609	-251.40034	131.32893	-1358.75	-95.00616	33.70678	-1332.15112	NaN	NaN	NaN	NaN	NaN	NaN	NaN	NaN	NaN	NaN	NaN	NaN	NaN	NaN	NaN	NaN	NaN	NaN	NaN	NaN	NaN
122	1.21	236.19627	1604.30542	-1462.13428	216.9146	1609.45752	-1330.39661	108.38351	1561.90149	-1475.10217	94.31817	1566.78369	-1344.53333	70.09328	1398.15698	-1410.48853	49.89625	1082.14624	-1399.87683	195.77321	1326.72473	-1407.3634	245.49362	1163.70813	-1410.06519	26.83373	1220.19519	-1306.89648	145.65506	1358.96106	-1565.22461	109.94384	1159.90674	-1628.01208	95.27812	1036.41467	-1635.28845	85.36221	905.72662	-1634.57666	60.04835	786.58789	-1604.72461	48.90132	799.01361	-1659.14063	5.71675	721.44147	-1644.95984	147.23811	1352.92395	-1247.91956	182.76306	1139.54199	-1164.26575	226.02602	1037.77185	-1148.63208	304.20462	927.69482	-1156.01611	376.96481	867.60852	-1199.42737	352.88623	840.5965	-1159.63184	413.95941	801.82721	-1170.979	224.56696	930.1496	-1516.24084	214.98283	919.10101	-1279.40955	59.47287	942.55237	-1475.81555	56.61541	950.48877	-1325.06628	248.31911	636.59277	-1565.96045	312.27023	478.08646	-1518.96106	310.53564	278.51947	-1522.49854	337.57678	70.55701	-1487.59692	298.0239	35.83892	-1450.74622	487.45438	42.06767	-1458.42078	115.38873	630.55377	-1238.20142	88.92661	451.32117	-1265.30627	-50.0433	310.03381	-1262.78955	-189.56752	144.22958	-1308.34619	-240.85391	142.85492	-1359.71753	-93.68935	33.74841	-1332.2561	NaN	NaN	NaN	148.20137	1667.08545	-1424.51599	NaN	NaN	NaN	NaN	NaN	NaN	NaN	NaN	NaN	NaN	NaN	NaN	NaN	NaN	NaN
123	1.22	249.08636	1605.38196	-1462.46863	229.39273	1610.2688	-1330.75378	121.37367	1562.91309	-1475.87842	106.87111	1567.62036	-1345.47742	83.53909	1399.05078	-1411.87927	64.03855	1082.72339	-1401.28625	208.95151	1327.75232	-1408.01514	259.65326	1165.17529	-1410.86279	40.31129	1220.50134	-1308.48291	160.11868	1360.27795	-1566.12366	124.34091	1161.36829	-1629.42041	109.42202	1037.84326	-1636.25403	98.82096	907.23328	-1635.07117	72.12788	788.28052	-1605.13123	62.26139	800.40735	-1659.99182	16.11923	724.07074	-1645.5249	159.85837	1353.83484	-1249.00037	194.54527	1140.05737	-1165.87598	237.40198	1038.09985	-1150.3175	314.89105	927.3952	-1157.37988	387.41852	866.90576	-1200.4585	362.95279	839.96234	-1160.79529	423.84641	800.79944	-1171.73303	239.57529	932.05756	-1516.69092	229.61375	919.86285	-1280.62854	74.37796	944.32233	-1476.99866	71.41663	950.79376	-1326.07629	259.89133	637.33392	-1567.22498	326.47412	478.91629	-1520.31201	320.21201	278.38174	-1524.552	338.47409	70.59209	-1486.99585	298.55087	36.42453	-1450.64172	489.49603	41.04863	-1458.91614	133.67352	629.59662	-1238.14929	110.59659	449.93448	-1263.54053	-33.43023	313.51639	-1262.0647	-177.96739	152.65913	-1308.24219	-227.57906	154.86115	-1360.86816	-91.80386	33.9262	-1332.38269	NaN	NaN	NaN	161.10753	1668.06641	-1424.97302	NaN	NaN	NaN	NaN	NaN	NaN	NaN	NaN	NaN	NaN	NaN	NaN	NaN	NaN	NaN
124	1.23	261.88571	1606.57666	-1462.78906	241.81587	1611.30493	-1331.14429	134.24715	1563.89673	-1476.55054	119.52234	1568.31665	-1346.1106	96.9329	1400.02478	-1413.27246	78.09129	1083.50342	-1402.81653	222.51448	1329.01794	-1408.87439	273.65906	1166.61841	-1411.54895	53.62376	1221.11548	-1310.20728	174.23468	1361.87219	-1567.11707	139.10313	1163.01831	-1630.79004	123.92643	1039.37561	-1637.0802	112.88608	908.93878	-1635.66406	85.30688	790.21393	-1605.90088	76.38596	801.97186	-1660.85925	28.18601	726.47156	-1646.34814	172.38628	1354.84558	-1250.05615	206.39948	1140.72742	-1167.54309	248.58203	1038.4812	-1152.12341	325.20789	927.11884	-1158.75647	397.30945	865.87958	-1201.47778	372.39746	839.12732	-1161.94641	432.94174	799.22656	-1172.46033	254.0481	933.97626	-1517.19153	243.95358	920.84674	-1281.91797	88.83865	946.17169	-1477.96777	85.79646	951.20825	-1326.97852	271.71939	637.91882	-1567.99792	339.77954	479.37	-1521.00476	327.94763	278.85895	-1526.02954	339.89041	70.70392	-1486.7207	298.66281	36.89896	-1451.19482	490.28104	39.86086	-1457.04126	152.7424	628.55408	-1238.10693	133.52016	448.48172	-1261.88867	-14.84257	316.93747	-1261.28857	-163.62148	160.79094	-1307.81018	-211.49937	167.00966	-1361.77368	-90.15988	34.14684	-1332.82166	NaN	NaN	NaN	173.92271	1669.07849	-1425.46716	NaN	NaN	NaN	NaN	NaN	NaN	NaN	NaN	NaN	NaN	NaN	NaN	NaN	NaN	NaN
